<?xml version="1.0" encoding="UTF-8"?> <svg xmlns="http://www.w3.org/2000/svg" width="612" height="120" viewBox="0 0 612 120" fill="none"><path d="M83.8111 95.6517H63.9232L53.4467 43.084H53.2337L42.7571 95.6517H22.5594L1.93555 19.355H21.8235L32.6292 75.1356H32.8422L44.074 19.355H62.7806L74.0124 75.1356H74.2254L85.0311 19.355H104.919L83.8498 95.6517H83.8111Z" fill="#FFF9F5"></path><path d="M169.152 40.2001H186.794V49.9162H187.007C189.679 42.8711 195.876 39.1162 203.68 39.1162C205.074 39.1162 206.566 39.2323 207.96 39.542V56.1098C205.617 55.471 203.467 55.0452 201.008 55.0452C192.022 55.0452 187.317 61.2388 187.317 68.1872V95.6517H169.133V40.2001H169.152Z" fill="#FFF9F5"></path><path d="M212.027 19.355H230.211V95.6517H212.027V19.355Z" fill="#FFF9F5"></path><path d="M295.297 95.6517H277.984V89.2453H277.771C274.247 94.4905 268.902 97.2582 262.492 97.2582C245.064 97.2582 237.686 82.2969 237.686 66.6969C237.686 52.2776 245.374 38.5937 261.098 38.5937C267.934 38.5937 273.182 41.1679 276.919 46.1808H277.132V19.355H295.316V95.6517H295.297ZM255.85 67.3356C255.85 74.9227 258.639 83.3614 266.966 83.3614C275.835 83.3614 277.771 74.9227 277.771 67.8776C277.771 59.8647 274.886 52.4905 266.966 52.4905C258.619 52.4905 255.85 60.2905 255.85 67.3356Z" fill="#FFF9F5"></path><path d="M298.414 19.355H358.93V25.5485H332.303V95.6324H325.041V25.5485H298.414V19.355Z" fill="#FFF9F5"></path><path d="M354.226 69.8904C354.342 79.7227 359.473 91.5872 372.409 91.5872C382.247 91.5872 387.592 85.8194 389.722 77.4775H396.461C393.575 89.9807 386.313 97.2388 372.409 97.2388C354.884 97.2388 347.506 83.7678 347.506 68.071C347.506 53.5356 354.884 38.9033 372.409 38.9033C389.935 38.9033 397.216 54.3872 396.674 69.8904H354.226ZM389.935 64.2195C389.606 54.0775 383.312 44.5549 372.409 44.5549C361.507 44.5549 355.31 54.1743 354.226 64.2195H389.935Z" fill="#FFF9F5"></path><path d="M455.893 40.5098H462.089V49.8001H462.419C465.943 43.1807 471.714 38.9033 480.486 38.9033C487.748 38.9033 494.274 42.4259 496.307 49.7033C499.619 42.4453 506.571 38.9033 513.833 38.9033C525.917 38.9033 532.114 45.213 532.114 58.2388V95.6323H525.374V58.5485C525.374 49.4711 521.947 44.5549 512.342 44.5549C500.684 44.5549 497.373 54.1743 497.373 64.4324V95.6323H490.634V58.2388C490.75 50.7678 487.632 44.5549 479.092 44.5549C467.434 44.5549 462.728 53.3227 462.632 64.8582V95.6323H455.893V40.4904V40.5098Z" fill="#FFF9F5"></path><path d="M575.317 56.6517C574.988 48.3098 568.578 44.5743 560.89 44.5743C554.906 44.5743 547.838 46.9162 547.838 54.0775C547.838 60.0582 554.674 62.2065 559.283 63.3678L568.268 65.4001C575.956 66.5807 583.993 71.0711 583.993 80.6711C583.993 92.6324 572.122 97.2388 561.858 97.2388C549.039 97.2388 540.266 91.2582 539.201 77.7872H545.94C546.482 86.8646 553.202 91.5679 562.188 91.5679C568.501 91.5679 577.254 88.7807 577.254 81.0969C577.254 74.6904 571.27 72.542 565.17 71.0517L556.514 69.1356C547.741 66.7936 541.118 63.7936 541.118 54.3872C541.118 43.1614 552.137 38.9033 561.858 38.9033C572.877 38.9033 581.63 44.6711 582.056 56.6323H575.317V56.6517Z" fill="#FFF9F5"></path><path d="M445.086 80.1098V56.6323C445.086 41.884 434.494 38.9033 424.773 38.9033C412.166 38.9033 403.064 44.4582 402.425 57.3872H409.164C409.377 48.4066 415.574 44.5743 423.92 44.5743C432.267 44.5743 438.347 46.8194 438.347 55.8969C438.347 61.9936 435.249 62.7291 429.691 63.3678C415.148 65.0711 400.082 65.613 400.082 81.0969C400.082 92.2066 408.428 97.2388 418.576 97.2388C428.723 97.2388 433.971 93.1743 438.677 86.013H438.89C438.89 91.2582 439.78 94.8969 445.086 95.5162V80.0904V80.1098ZM438.347 74.2646C438.464 85.0646 429.362 91.5679 419.099 91.5679C412.786 91.5679 406.802 87.4066 406.802 80.6711C406.802 69.8711 421.016 69.9872 432.46 67.9549C434.281 67.6259 437.263 67.1033 438.134 65.4969H438.347V74.2646Z" fill="#FFF9F5"></path><path d="M600.859 97.2389C606.805 97.2389 611.626 92.4209 611.626 86.4776C611.626 80.5343 606.805 75.7163 600.859 75.7163C594.912 75.7163 590.092 80.5343 590.092 86.4776C590.092 92.4209 594.912 97.2389 600.859 97.2389Z" fill="#FFF9F5"></path><path d="M164.118 57.7165C164.118 57.523 164.041 57.3488 163.905 57.2133L140.047 33.5036C139.854 33.3101 139.582 33.252 139.331 33.3101L107.862 41.5939C107.611 41.6713 107.398 41.8649 107.34 42.1165L98.6834 74.2262C98.6834 74.2262 98.6641 74.3617 98.6641 74.4391C98.6641 74.4584 98.6641 74.4778 98.6641 74.4971C98.6641 74.5552 98.6641 74.5939 98.7028 74.652C98.7028 74.6713 98.7028 74.6907 98.7222 74.7101C98.7415 74.7681 98.7802 74.8455 98.8383 74.9036L118.784 98.8649C118.862 99.0584 119.017 99.2133 119.21 99.2907C119.288 99.3294 119.385 99.3294 119.462 99.3294C119.598 99.3294 119.753 99.2907 119.869 99.2133L119.927 99.1746L154.726 90.4842C154.978 90.4262 155.191 90.2133 155.268 89.9617L164.06 58.1423C164.118 58.0262 164.137 57.9101 164.137 57.7939C164.137 57.7746 164.137 57.7552 164.137 57.7359L164.118 57.7165ZM150.156 76.9358L138.498 72.6004L142.875 68.1488L140.067 63.6778L125.388 53.1681L118.629 58.2778L116.519 64.4133L109.315 61.7229L139.118 35.4391L150.156 76.9165V76.9358ZM151.511 76.2391L149.052 67.0262L153.448 67.6649L155.675 69.2326L151.492 76.2197L151.511 76.2391ZM136.658 35.6133L130.733 40.8584L124.265 38.8842L136.678 35.6133H136.658ZM108.792 42.9488L115.318 41.2262L114.098 44.8262L118.571 51.5617L108.637 60.3294L108.792 42.9294V42.9488ZM107.243 48.1359L107.127 61.781L101.259 70.3746L107.262 48.1359H107.243ZM109.605 85.5488L100.31 74.4004L107.611 63.7165L117.545 95.0907L109.605 85.5488ZM119.869 97.4326L109.024 63.2713L117.835 66.5423L120.237 70.8391L118.513 77.8455L122.154 90.1939L123.897 84.1165L131.159 80.0714L137.317 73.8004L149.555 78.3488L119.849 97.452L119.869 97.4326ZM150.795 79.3165L153.351 89.2842L123.819 96.6584L150.795 79.3165ZM154.416 87.3294L152.073 78.1746L156.895 70.123L158.812 71.4778L154.435 87.3488L154.416 87.3294ZM159.412 62.981L156.12 63.1359L151.937 59.0907L147.464 61.1036L140.938 36.6004L162.433 57.9681L159.432 63.0004L159.412 62.981Z" fill="#FFF9F5"></path><path d="M158.521 56.1099L152.285 56.4776L157.301 60.6002L158.521 56.1099Z" fill="#FFF9F5"></path></svg> 